<svg width="230" height="230" viewBox="0 0 230 230" fill="none" xmlns="http://www.w3.org/2000/svg">
<path d="M102.607 149.209C113.614 149.207 124.303 145.522 132.973 138.742L172.232 179L181 170.232L141.741 129.975C148.525 121.304 152.212 110.613 152.214 99.6044C152.214 72.2538 129.959 50 102.607 50C75.255 50 53 72.2538 53 99.6044C53 126.955 75.255 149.209 102.607 149.209ZM102.607 62.4011C123.126 62.4011 139.812 79.0868 139.812 99.6044C139.812 120.122 123.126 136.808 102.607 136.808C82.0884 136.808 65.4018 120.122 65.4018 99.6044C65.4018 79.0868 82.0884 62.4011 102.607 62.4011Z" fill="white"/>
<path d="M102.304 74.816C102.713 73.7149 104.285 73.7325 104.67 74.8424L105.744 77.9424C107.348 82.5732 109.973 86.7884 113.428 90.2794C116.882 93.7703 121.078 96.4485 125.708 98.1178L129.172 99.3665C130.274 99.764 130.277 101.314 129.176 101.714L125.703 102.978C121.199 104.617 117.108 107.213 113.715 110.584C110.322 113.956 107.708 118.022 106.055 122.5L104.696 126.181C104.294 127.271 102.746 127.274 102.34 126.186L100.92 122.385C99.2609 117.94 96.6528 113.904 93.2758 110.557C89.8988 107.209 85.8328 104.629 81.3575 102.993L77.8229 101.701C76.7279 101.301 76.725 99.762 77.8184 99.3578L81.4221 98.0252C85.8787 96.3773 89.9249 93.7916 93.2839 90.4448C96.6429 87.0981 99.2355 83.0694 100.884 78.6341L102.304 74.816Z" fill="white"/>
</svg>
