<svg width="24" height="24" viewBox="0 0 24 24" fill="none" xmlns="http://www.w3.org/2000/svg">
<path d="M9.05239 18.1038C11.0609 18.1034 13.0115 17.4311 14.5936 16.1939L21.7577 23.5401L23.3577 21.9402L16.1936 14.5939C17.4315 13.0117 18.1043 11.0608 18.1048 9.05191C18.1048 4.06091 14.0437 0 9.05239 0C4.06113 0 0 4.06091 0 9.05191C0 14.0429 4.06113 18.1038 9.05239 18.1038ZM9.05239 2.26298C12.7967 2.26298 15.8417 5.30781 15.8417 9.05191C15.8417 12.796 12.7967 15.8408 9.05239 15.8408C5.30809 15.8408 2.2631 12.796 2.2631 9.05191C2.2631 5.30781 5.30809 2.26298 9.05239 2.26298Z" fill="white"/>
<path d="M8.99706 4.52842C9.07179 4.32749 9.35864 4.33071 9.42878 4.53324L9.62476 5.09893C9.9175 5.94397 10.3966 6.71317 11.027 7.3502C11.6573 7.98724 12.423 8.47596 13.2679 8.78057L13.9 9.00844C14.1012 9.08097 14.1016 9.36375 13.9007 9.43686L13.267 9.6675C12.4451 9.96665 11.6986 10.4403 11.0794 11.0555C10.4602 11.6707 9.98322 12.4127 9.6816 13.2298L9.43362 13.9016C9.36024 14.1005 9.07772 14.101 9.00358 13.9025L8.74463 13.2089C8.44178 12.3977 7.96586 11.6614 7.34961 11.0505C6.73337 10.4396 5.9914 9.96877 5.17475 9.67027L4.52974 9.43451C4.32992 9.36147 4.3294 9.08061 4.52892 9.00685L5.18654 8.76367C5.99978 8.46296 6.73814 7.99112 7.35109 7.3804C7.96405 6.76969 8.43716 6.03451 8.73805 5.22516L8.99706 4.52842Z" fill="white"/>
</svg>
